<svg xmlns="http://www.w3.org/2000/svg" width="1080" height="1080" viewBox="0 0 1080 1080" version="1.1"><path d="M 279 8 L 279 16 248.161 16 C 231.199 16, 208.474 16.296, 197.661 16.658 L 178 17.317 178 29.658 L 178 42 165.500 42 L 153 42 153 92 L 153 142 177.882 142 L 202.764 142 203.500 117 L 204.236 92 222.868 91.997 C 233.115 91.996, 249.938 91.699, 260.250 91.339 L 279 90.684 279 78.342 L 279 66 304.388 66 L 329.775 66 330.510 41.516 L 331.244 17.033 357.372 16.766 L 383.500 16.500 383.790 8.250 L 384.081 0 357.540 0 L 331 0 331 8 L 331 16 318.500 16 L 306 16 306 8 L 306 0 292.500 0 L 279 0 279 8 M 511 8 L 511 16 523 16 L 535 16 535 8 L 535 0 523 0 L 511 0 511 8 M 663 33 L 663 66 687.970 66 L 712.940 66 713.220 78.750 L 713.500 91.500 726.250 91.780 L 739 92.060 739 104.403 L 739 116.746 763.891 117.477 L 788.781 118.208 789.513 142.604 L 790.245 167 802.623 167 L 815 167 815 179.500 L 815 192 827.382 192 L 839.764 192 840.499 216.970 L 841.234 241.940 853.367 242.220 L 865.500 242.500 865.500 305.500 L 865.500 368.500 853 368.500 L 840.500 368.500 840.221 355.911 L 839.943 343.323 769.221 342.714 C 730.325 342.379, 690.288 342.376, 680.250 342.707 L 662 343.310 662 368.655 L 662 394 650 394 L 638 394 638 406.500 L 638 419 676 419 L 714 419 714 406.483 L 714 393.966 739.250 394.233 L 764.500 394.500 764.781 406.750 L 765.062 419 790.001 419 L 814.940 419 815.220 431.750 L 815.500 444.500 828 444.500 L 840.500 444.500 840.780 431.719 L 841.060 418.939 853.280 419.219 L 865.500 419.500 866.391 444.750 L 867.281 470 879.124 470 L 890.966 470 891.233 444.750 L 891.500 419.500 903.638 419.220 L 915.776 418.940 916.511 393.470 L 917.245 368 929.623 368 L 942 368 942 355.500 L 942 343 954.500 343 L 967 343 967 330.500 L 967 318 955 318 L 943 318 943 280.500 L 943 243 955.500 243 L 968 243 968 255.500 L 968 268 981 268 L 994 268 994 281 L 994 294 1005.842 294 L 1017.684 294 1018.342 312.160 C 1018.704 322.148, 1019 333.173, 1019 336.660 L 1019 343 1005.970 343 L 992.940 343 993.220 355.750 L 993.500 368.500 1005.593 368.780 L 1017.687 369.059 1018.343 387.190 C 1018.704 397.162, 1019 436.523, 1019 474.660 L 1019 544 1031.500 544 L 1044 544 1044 570 L 1044 596 1031.500 596 L 1019 596 1019 608 L 1019 620 993.500 620 L 968 620 968 632.500 L 968 645 892 645 L 816 645 816 670.500 L 816 696 828 696 L 840 696 840 708.500 L 840 721 828.158 721 L 816.316 721 815.661 739.750 C 815.301 750.063, 815.004 766.938, 815.003 777.250 L 815 796 802.500 796 L 790 796 789.997 815.250 C 789.996 825.837, 789.699 842.938, 789.339 853.250 L 788.684 872 776.342 872 L 764 872 764 884.469 L 764 896.938 751.750 897.219 L 739.500 897.500 739 909.500 L 738.500 921.500 687.750 921.759 L 637 922.018 637 947.009 L 637 972 624.500 972 L 612 972 612 960.108 L 612 948.216 586 947.481 L 560 946.746 560 934.373 L 560 922 535 922 L 510 922 510 960 L 510 998 497.618 998 L 485.236 998 484.500 973 L 483.764 948 472 948 L 460.236 948 459.506 972.797 L 458.776 997.595 408.138 997.547 L 357.500 997.500 357.219 985.250 L 356.938 973 344 973 L 331.062 973 330.781 985.250 L 330.500 997.500 305.532 997.768 C 291.800 997.915, 280.161 998.439, 279.667 998.933 C 279.147 999.453, 279.080 1009.734, 279.508 1023.415 L 280.245 1047 292.622 1047 L 305 1047 305 1059.392 L 305 1071.784 331 1072.519 L 357 1073.254 357 1076.627 L 357 1080 370.369 1080 L 383.737 1080 383.227 1064 L 382.716 1048 395.358 1048 L 408 1048 408 1064 L 408 1080 433.440 1080 L 458.879 1080 459.190 1076.250 L 459.500 1072.500 471.750 1072.219 L 484 1071.938 484 1075.969 L 484 1080 561 1080 L 638 1080 638 1076 L 638 1072 650 1072 L 662 1072 662 1060.059 C 662 1052.571, 662.404 1047.869, 663.082 1047.449 C 663.678 1047.081, 675.153 1047.110, 688.582 1047.513 L 713 1048.245 713 1060.123 L 713 1072 726 1072 L 739 1072 739 1060 L 739 1048 751.750 1047.837 C 758.763 1047.748, 781.487 1047.602, 802.250 1047.513 L 840 1047.352 840.009 1058.426 C 840.013 1064.517, 840.301 1071.862, 840.648 1074.750 L 841.279 1080 866 1080 L 890.721 1080 891.352 1074.750 C 891.699 1071.862, 891.987 1059.037, 891.991 1046.250 L 892 1023 903.838 1023 L 915.676 1023 916.329 985.842 C 916.688 965.406, 917.098 948.572, 917.241 948.435 C 917.383 948.298, 928.750 948.031, 942.500 947.843 L 967.500 947.500 968 973 L 968.500 998.500 980.750 998.781 L 993 999.062 993 985.531 L 993 972 1005.500 972 L 1018 972 1018 960.059 C 1018 952.625, 1018.406 947.867, 1019.075 947.454 C 1019.666 947.089, 1031.366 947.119, 1045.075 947.522 L 1070 948.254 1070 960.127 L 1070 972 1075 972 L 1080 972 1080 758.500 L 1080 545 1076.059 545 C 1073.891 545, 1071.867 544.594, 1071.560 544.097 C 1071.253 543.601, 1071.300 526.951, 1071.663 507.097 L 1072.324 471 1076.162 471 L 1080 471 1080 369.500 L 1080 268 1049.530 268 L 1019.060 268 1018.780 255.250 L 1018.500 242.500 1006.362 242.220 L 994.223 241.940 993.492 217.568 C 993.090 204.163, 993.066 192.702, 993.439 192.098 C 993.871 191.400, 998.467 191, 1006.059 191 L 1018 191 1018 179.500 L 1018 168 993.158 168 L 968.317 168 967.658 148.339 C 967.296 137.526, 967 114.576, 967 97.339 L 967 66 954.500 66 L 942 66 942 54 L 942 42 930 42 L 918 42 918 29.517 L 918 17.034 892.250 16.767 L 866.500 16.500 866.210 8.250 L 865.919 0 764.460 0 L 663 0 663 33 M 153 204.500 L 153 217 165 217 L 177 217 177 204.500 L 177 192 165 192 L 153 192 153 204.500 M 370.750 268.747 L 358 269.060 358 281.013 L 358 292.966 383.250 293.233 L 408.500 293.500 408.781 305.750 L 409.062 318 433.904 318 L 458.746 318 459.477 294.073 C 459.879 280.914, 459.910 269.664, 459.545 269.073 C 458.921 268.063, 406.522 267.870, 370.750 268.747 M 434 356.158 L 434 369.316 452.750 368.661 C 463.063 368.301, 474.538 368.004, 478.250 368.003 L 485 368 485 355.500 L 485 343 459.500 343 L 434 343 434 356.158 M 587 381 L 587 393 599 393 L 611 393 611 381 L 611 369 599 369 L 587 369 587 381 M 612.667 419.667 C 612.300 420.033, 612 425.658, 612 432.167 L 612 444 624.500 444 L 637 444 637 431.500 L 637 419 625.167 419 C 618.658 419, 613.033 419.300, 612.667 419.667 M 688.696 470.637 C 688.313 471.020, 688 476.447, 688 482.697 L 688 494.060 700.750 493.780 L 713.500 493.500 713.500 482 L 713.500 470.500 701.446 470.221 C 694.816 470.067, 689.079 470.255, 688.696 470.637 M 765 507 L 765 519 777 519 L 789 519 789 507 L 789 495 777 495 L 765 495 765 507 M 548.250 670.747 L 535 671.058 535 683.529 L 535 696 522.500 696 L 510 696 510 683.500 L 510 671 497.500 671 L 485 671 485 696 L 485 721 504.250 721.003 C 514.837 721.004, 531.938 721.301, 542.250 721.661 L 561 722.316 561 734.045 L 561 745.774 586.500 746.510 L 612 747.245 612 758.623 L 612 770 624.500 770 L 637 770 637 783 L 637 796 624.500 796 L 612 796 612 808.382 L 612 820.764 637.083 821.502 C 650.879 821.908, 673.535 821.913, 687.429 821.512 L 712.692 820.783 713.344 802.012 C 713.703 791.688, 713.704 775.156, 713.346 765.273 L 712.695 747.306 694.098 746.656 C 683.869 746.298, 661.212 746.004, 643.750 746.003 L 612 746 612 734 L 612 722 624.500 722 L 637 722 637 696.658 L 637 671.316 618.250 670.661 C 600.396 670.037, 577.336 670.065, 548.250 670.747 M 305 734 L 305 746 317.500 746 L 330 746 330 734 L 330 722 317.500 722 L 305 722 305 734 M 409 758.500 L 409 770 421 770 L 433 770 433 758.500 L 433 747 421 747 L 409 747 409 758.500 M 523.219 770.673 L 509.939 771.058 510.219 783.279 L 510.500 795.500 548.750 795.762 L 587 796.024 587 783.512 L 587 771 580.250 770.997 C 576.538 770.996, 565.175 770.835, 555 770.641 C 544.825 770.447, 530.524 770.461, 523.219 770.673 M 77 860 L 77 872 89 872 L 101 872 101 860 L 101 848 89 848 L 77 848 77 860 M 153 885 L 153 897 165 897 L 177 897 177 885 L 177 873 165 873 L 153 873 153 885 M 229 985 L 229 998 241.500 998 L 254 998 254 985 L 254 972 241.500 972 L 229 972 229 985 M 358 1035.500 L 358 1047 370.500 1047 L 383 1047 383 1035.500 L 383 1024 370.500 1024 L 358 1024 358 1035.500" stroke="none" fill="#231917" fill-rule="evenodd"/><path d="M 77 8 L 77 16 89 16 L 101 16 101 8 L 101 0 89 0 L 77 0 77 8 M 409 29.971 L 409 41.942 395.750 42.221 L 382.500 42.500 382.218 54.250 L 381.937 66 356.498 66 L 331.060 66 330.780 78.750 L 330.500 91.500 317.781 91.780 L 305.061 92.059 304.781 104.280 L 304.500 116.500 291.750 116.780 L 279 117.060 279 129.412 L 279 141.764 254 142.500 L 229 143.236 229 155.618 L 229 168 216.500 168 L 204 168 203.997 186.250 C 203.996 196.287, 203.700 212.925, 203.340 223.221 L 202.686 241.943 190.593 242.314 C 183.942 242.518, 189.525 242.486, 203 242.242 C 216.475 241.999, 227.615 241.693, 227.755 241.562 C 227.895 241.431, 228.304 224.881, 228.665 204.785 L 229.320 168.245 254.130 167.516 L 278.940 166.787 279.220 154.644 L 279.500 142.500 292.250 142.220 L 305 141.940 305 129.470 L 305 117 318 117 L 331 117 331 104.500 L 331 92 344.500 92 L 358 92 358 117.500 L 358 143 376.750 142.997 C 387.063 142.996, 403.924 142.700, 414.220 142.340 L 432.941 141.686 433.220 129.593 L 433.500 117.500 459.250 117.233 L 485 116.966 485 103.983 L 485 91 472.500 91 L 460 91 460 79 L 460 67 484.469 67 L 508.938 67 509.219 79.250 L 509.500 91.500 522.093 91.779 L 534.686 92.057 535.340 110.779 C 535.700 121.075, 535.996 137.924, 535.997 148.219 L 536 166.938 548.250 167.219 L 560.500 167.500 561 179.500 L 561.500 191.500 586.750 191.767 L 612 192.034 612 204.487 L 612 216.940 624.750 217.220 L 637.500 217.500 637.781 229.750 L 638.062 242 650.031 242 L 662 242 662 230.127 L 662 218.254 687.090 217.517 C 703.693 217.029, 712.523 217.123, 713.194 217.794 C 713.865 218.465, 713.959 227.137, 713.473 243.404 L 712.737 268 700.369 268 L 688 268 688 280.500 L 688 293 650 293 L 612 293 612 281.059 C 612 273.691, 611.592 268.866, 610.935 268.460 C 610.349 268.098, 598.874 268.130, 585.435 268.532 L 561 269.263 561 281.131 L 561 293 548.500 293 L 536 293 536 280.500 L 536 268 529.250 267.997 C 525.538 267.996, 514.175 267.831, 504 267.630 C 490.573 267.366, 488.927 267.435, 498 267.883 L 510.500 268.500 510.781 280.719 L 511.061 292.939 523.281 293.219 L 535.500 293.500 535.780 306.250 L 536.060 319 599.530 319 L 663 319 663 306.500 L 663 294 694.750 293.997 C 712.212 293.996, 734.938 293.699, 745.250 293.339 L 764 292.684 764 254.842 L 764 217 751.658 217 L 739.317 217 738.658 197.339 C 738.296 186.526, 738 169.890, 738 160.370 L 738 143.062 725.750 142.781 L 713.500 142.500 713.220 129.750 L 712.940 117 700.470 117 L 688 117 688 104.500 L 688 92 662.500 92 L 637 92 637 79.517 L 637 67.034 611.750 66.767 L 586.500 66.500 586.232 42.250 L 585.964 18 573.982 18 L 562 18 562 30 L 562 42 549 42 L 536 42 536 54 L 536 66 523 66 L 510 66 510 54 L 510 42 484.500 42 L 459 42 459 54 L 459 66 446.617 66 L 434.235 66 433.500 42 L 432.765 18 420.883 18 L 409 18 409 29.971 M 57.292 42.742 C 61.027 42.935, 66.877 42.934, 70.292 42.739 C 73.706 42.545, 70.650 42.387, 63.500 42.389 C 56.350 42.390, 53.556 42.550, 57.292 42.742 M 101.385 54 C 101.385 60.875, 101.545 63.688, 101.740 60.250 C 101.936 56.813, 101.936 51.188, 101.740 47.750 C 101.545 44.313, 101.385 47.125, 101.385 54 M 12.250 217.747 C 19.263 217.919, 30.738 217.919, 37.750 217.747 C 44.763 217.575, 39.025 217.435, 25 217.435 C 10.975 217.435, 5.238 217.575, 12.250 217.747 M 292.807 217.672 L 280.113 218.059 279.807 230.559 L 279.500 243.058 292.500 242.779 L 305.500 242.500 305.781 230.250 L 306.062 218 318.031 218 L 330 218 330 229.841 L 330 241.683 350.250 242.339 C 361.387 242.700, 396.150 242.898, 427.500 242.779 C 458.850 242.660, 478.538 242.423, 471.250 242.253 L 458 241.942 458 229.971 L 458 218 446.500 218 L 435 218 435 230 L 435 242 396.500 242 L 358 242 358 230 L 358 218 351.161 218 C 347.399 218, 335.587 217.839, 324.911 217.642 C 314.235 217.446, 299.788 217.459, 292.807 217.672 M 254.389 255.500 C 254.390 262.650, 254.550 265.444, 254.742 261.708 C 254.935 257.973, 254.934 252.123, 254.739 248.708 C 254.545 245.294, 254.387 248.350, 254.389 255.500 M 165.367 267.746 L 153.234 268.060 152.498 293.077 C 152.093 306.837, 152.040 318.374, 152.381 318.714 C 152.721 319.055, 153 313.408, 153 306.167 L 153 293 165.500 293 L 178 293 178 280 C 178 272.850, 177.887 267.097, 177.750 267.216 C 177.613 267.335, 172.040 267.574, 165.367 267.746 M 25.389 280.500 C 25.390 287.650, 25.550 290.444, 25.742 286.708 C 25.935 282.973, 25.934 277.123, 25.739 273.708 C 25.545 270.294, 25.387 273.350, 25.389 280.500 M 228.781 281.250 L 228.500 293.500 215.719 293.780 L 202.939 294.060 203.219 306.280 L 203.500 318.500 216.250 318.780 L 229 319.060 229 343.530 L 229 368 241.500 368 L 254 368 254 355.500 L 254 343 267 343 L 280 343 280 331.623 L 280 320.245 304.418 319.513 C 317.847 319.110, 329.322 319.081, 329.918 319.449 C 330.592 319.866, 331 324.430, 331 331.559 L 331 343 344 343 L 357 343 357 318.500 L 357 294 331 294 L 305 294 305 305.842 L 305 317.684 286.250 318.339 C 275.938 318.699, 258.837 318.996, 248.250 318.997 L 229 319 229 306.500 L 229 294 241.500 294 L 254 294 254 281.500 L 254 269 241.531 269 L 229.062 269 228.781 281.250 M 6.292 319.742 C 10.027 319.935, 15.877 319.934, 19.292 319.739 C 22.706 319.545, 19.650 319.387, 12.500 319.389 C 5.350 319.390, 2.556 319.550, 6.292 319.742 M 6.292 342.742 C 10.027 342.935, 15.877 342.934, 19.292 342.739 C 22.706 342.545, 19.650 342.387, 12.500 342.389 C 5.350 342.390, 2.556 342.550, 6.292 342.742 M 383.500 342.765 C 382.926 343.187, 382.500 348.823, 382.500 356 L 382.500 368.500 331.250 368.759 L 280 369.018 280 380.979 L 280 392.940 267.250 393.220 L 254.500 393.500 254.220 406.220 L 253.941 418.940 266.720 419.220 L 279.500 419.500 279.780 432.250 L 280.060 445 292.530 445 L 305 445 305 457.507 L 305 470.015 369.250 469.757 L 433.500 469.500 433.780 457.372 L 434.060 445.244 459.530 444.509 L 485 443.774 485 431.887 L 485 420 497.500 420 L 510 420 510 432.500 L 510 445 522.488 445 L 534.976 445 535.238 406.750 L 535.500 368.500 548.250 368.220 L 561 367.940 561 380.970 L 561 394 573.338 394 L 585.675 394 586.376 494.034 C 586.761 549.053, 586.807 594.503, 586.479 595.034 C 586.147 595.572, 580.363 596, 573.441 596 L 561 596 561 607.377 L 561 618.755 535.500 619.490 C 521.475 619.895, 498.525 619.895, 484.500 619.490 L 459 618.755 459 607.377 L 459 596 446.500 596 L 434 596 434 607.500 L 434 619 421 619 L 408 619 408.003 626.250 C 408.004 630.237, 408.301 641.938, 408.661 652.250 L 409.316 671 421.158 671 L 433 671 433 683.531 L 433 696.062 420.750 695.781 L 408.500 695.500 408.219 683.250 L 407.938 671 389.719 670.997 C 379.699 670.996, 362.387 670.700, 351.250 670.339 L 331 669.683 331 657.341 L 331 645 344 645 L 357 645 357 632.530 L 357 620.060 369.750 619.780 L 382.500 619.500 382.767 594.750 L 383.035 570 395.517 570 L 408 570 408 557.500 L 408 545 383 545 L 358 545 358 557.500 L 358 570 344.500 570 L 331 570 331 557.500 L 331 545 318 545 L 305 545 305 557.483 L 305 569.966 279.750 570.233 L 254.500 570.500 254.219 582.720 L 253.939 594.941 241.219 595.220 L 228.500 595.500 228.219 607.133 L 227.939 618.766 203.116 619.497 L 178.293 620.227 177.588 641.183 C 177.200 652.709, 177.203 681.008, 177.596 704.070 L 178.309 746 152.655 746 L 127 746 127 734 L 127 722 114.500 722 L 102 722 102 676.660 C 102 651.723, 101.704 623.148, 101.342 613.160 L 100.684 595 89 595 L 77.316 595 76.658 613.160 C 76.296 623.148, 76 640.010, 76 650.631 L 76 669.942 62.750 670.268 L 49.500 670.594 63 670.547 L 76.500 670.500 76.767 645.250 L 77.034 620 89.017 620 L 101 620 101 652.335 C 101 670.120, 101.299 709.712, 101.664 740.319 L 102.327 795.966 127.414 796.233 L 152.500 796.500 152.780 809.250 L 153.060 822 165.499 822 L 177.938 822 178.219 834.250 L 178.500 846.500 191.250 846.780 L 204 847.060 204 859.530 L 204 872 215.418 872 C 221.698 872, 227.548 872.273, 228.418 872.607 C 229.737 873.113, 230 875.175, 230 885 L 230 896.785 255 897.520 L 280 898.254 280 909.509 L 280 920.764 304.750 921.276 C 318.363 921.558, 358.750 921.723, 394.500 921.644 L 459.500 921.500 459.782 909.750 L 460.063 898 472.562 898 L 485.060 898 484.780 885.250 L 484.500 872.500 459.280 872.233 L 434.059 871.966 433.750 859.733 C 433.581 853.005, 433.640 864.038, 433.883 884.250 L 434.324 921 396.162 921 L 358 921 358 909.500 L 358 898 344 898 L 330 898 330 885.500 L 330 873 317.500 873 L 305 873 305 885 L 305 897 292.531 897 L 280.062 897 279.781 884.750 L 279.500 872.500 267.250 872.219 L 255 871.938 255 859.469 L 255 847 267.500 847 L 280 847 280 809 L 280 771 344.250 770.768 C 379.587 770.640, 397.137 770.408, 383.250 770.251 L 358 769.966 358 758.483 L 358 747 324.660 747 C 306.323 747, 283.162 746.704, 273.190 746.343 L 255.059 745.687 254.780 733.593 L 254.500 721.500 242.407 721.220 L 230.314 720.941 229.660 702.220 C 229.300 691.924, 229.004 680.688, 229.003 677.250 L 229 671 241.500 671 L 254 671 254 658.158 L 254 645.316 273 644.655 C 283.450 644.292, 300.537 644.291, 310.971 644.654 L 329.943 645.314 330.221 657.907 L 330.500 670.500 344.346 670.779 L 358.191 671.058 357.846 696.279 L 357.500 721.500 370.250 721.780 L 383 722.060 383 733.904 L 383 745.748 433.083 746.491 C 464.450 746.957, 483.520 746.880, 484.116 746.284 C 484.644 745.756, 484.940 740.034, 484.783 733.417 L 484.500 721.500 471.750 721.220 L 459 720.940 459 708.470 L 459 696 446.623 696 L 434.245 696 433.510 670.500 L 432.774 645 420.887 645 L 409 645 409 632.500 L 409 620 446.469 620 L 483.938 620 484.219 632.250 L 484.500 644.500 522.750 644.762 L 561 645.024 561 632.524 L 561 620.024 599.250 619.762 L 637.500 619.500 637.500 607.500 L 637.500 595.500 624.750 595.220 L 612 594.940 612 569.970 L 612 545 624.470 545 L 636.940 545 637.220 557.750 L 637.500 570.500 649.750 570.781 L 662 571.062 662 583.531 L 662 596 674.888 596 L 687.775 596 688.509 620.470 L 689.243 644.940 701.372 645.220 L 713.500 645.500 713.781 657.750 L 714.062 670 751.418 670 L 788.775 670 789.461 645.750 C 789.838 632.413, 790.001 615.650, 789.823 608.500 L 789.500 595.500 777.281 595.219 L 765.061 594.939 764.781 582.719 L 764.500 570.500 739.250 570.233 L 714 569.966 714 557.512 L 714 545.058 700.750 544.779 L 687.500 544.500 687.220 532.407 L 686.941 520.314 668.220 519.660 C 657.924 519.300, 641.134 519.004, 630.908 519.003 L 612.317 519 611.658 499.339 C 611.296 488.526, 611 471.876, 611 462.339 L 611 445 599.124 445 L 587.248 445 586.507 394.654 L 585.767 344.307 567.723 343.654 C 557.799 343.294, 546.377 343, 542.340 343 L 535 343 535 355.382 L 535 367.764 510 368.500 L 485 369.236 485 394.088 L 485 418.940 472.250 419.220 L 459.500 419.500 459.220 431.638 L 458.940 443.776 433.470 444.511 L 408 445.245 408 457.123 L 408 469 383 469 L 358 469 358 457 L 358 445 350.250 444.997 C 345.988 444.996, 334.063 444.699, 323.750 444.339 L 305 443.684 305 431.342 L 305 419 292.500 419 L 280 419 280 406.500 L 280 394 330.418 394 C 358.148 394, 381.548 393.727, 382.418 393.393 C 383.738 392.887, 384 390.815, 384 380.893 L 384 369 396 369 L 408 369 408 355.500 L 408 342 396.250 342.015 C 389.788 342.024, 384.050 342.361, 383.500 342.765 M 31.750 343.740 C 35.188 343.936, 40.813 343.936, 44.250 343.740 C 47.688 343.545, 44.875 343.385, 38 343.385 C 31.125 343.385, 28.313 343.545, 31.750 343.740 M 128 361.339 C 128 371.426, 127.704 388.526, 127.342 399.339 L 126.683 419 114.469 419 L 102.254 419 101.521 394.056 L 100.789 369.111 88.393 368.806 L 75.996 368.500 75.998 381.250 L 76 394 63 394 L 50 394 50 406.500 L 50 419 25 419 L 0 419 0 432.158 L 0 445.316 19 444.655 C 29.450 444.292, 46.550 444.292, 57 444.655 L 76 445.316 76 457.658 L 76 470 51.112 470 L 26.225 470 25.539 494.250 C 25.162 507.587, 24.999 524.350, 25.177 531.500 L 25.500 544.500 50.733 544.767 L 75.966 545.034 76.233 519.767 L 76.500 494.500 89.250 494.220 L 102 493.940 102 519.501 L 102 545.062 114.250 544.781 L 126.500 544.500 126.767 519.250 L 127.034 494 114.517 494 L 102 494 102 482 L 102 470 114.500 470 L 127 470 127 444.500 L 127 419 139.387 419 L 151.774 419 152.512 393.407 L 153.251 367.814 178.375 368.157 L 203.500 368.500 203.780 355.750 L 204.060 343 166.030 343 L 128 343 128 361.339 M 12.750 368.747 L 0 369.060 0 380.974 L 0 392.889 13.002 393.194 L 26.004 393.500 26.002 380.750 C 26.001 373.738, 25.887 368.098, 25.750 368.217 C 25.613 368.337, 19.762 368.575, 12.750 368.747 M 76 406.500 L 76 419 88.500 419 L 101 419 101 406.500 L 101 394 88.500 394 L 76 394 76 406.500 M 841 457.531 L 841 470.062 853.250 469.781 L 865.500 469.500 865.781 457.250 L 866.062 445 853.531 445 L 841 445 841 457.531 M 916.389 457.500 C 916.390 464.650, 916.550 467.444, 916.742 463.708 C 916.935 459.973, 916.934 454.123, 916.739 450.708 C 916.545 447.294, 916.387 450.350, 916.389 457.500 M 942.523 468.927 C 942.121 482.086, 942.090 493.336, 942.455 493.927 C 942.867 494.594, 947.625 495, 955.028 495 L 966.938 495 967.253 507.250 L 967.568 519.500 967.784 506.750 L 968 494 980.342 494 L 992.684 494 993.342 475.840 C 993.704 465.852, 994 454.827, 994 451.340 L 994 445 968.627 445 L 943.254 445 942.523 468.927 M 51 482.500 L 51 494 63.500 494 L 76 494 76 482.500 L 76 471 63.500 471 L 51 471 51 482.500 M 485 482 L 485 493 497.500 493 L 510 493 510 482 L 510 471 497.500 471 L 485 471 485 482 M 891.378 482 C 891.378 488.325, 891.541 490.913, 891.739 487.750 C 891.937 484.587, 891.937 479.413, 891.739 476.250 C 891.541 473.087, 891.378 475.675, 891.378 482 M 891 532 L 891 544 879.059 544 C 872.491 544, 866.863 544.412, 866.552 544.916 C 866.240 545.420, 866.286 562.282, 866.654 582.387 L 867.323 618.941 879.411 619.221 L 891.500 619.500 891.781 631.750 L 892.062 644 904.531 644 L 917 644 917 632 L 917 620 936.250 619.997 C 946.837 619.996, 963.938 619.699, 974.250 619.339 L 993 618.684 993 607.372 L 993 596.060 1005.750 595.780 L 1018.500 595.500 1018.549 582.500 L 1018.597 569.500 1018.270 582.093 L 1017.943 594.686 999.221 595.340 C 988.925 595.700, 972.063 595.996, 961.750 595.997 L 943 596 943 607.373 L 943 618.746 918.075 619.478 C 904.366 619.881, 892.624 619.886, 891.982 619.489 C 891.130 618.962, 890.908 612.266, 891.158 594.634 L 891.500 570.500 879.250 570.219 L 867 569.938 867 557.592 L 867 545.245 891.500 544.510 L 916 543.775 916 531.888 L 916 520 903.500 520 L 891 520 891 532 M 994 532 L 994 544 1006 544 L 1018 544 1018 532 L 1018 520 1006 520 L 994 520 994 532 M 688.494 571.154 C 688.184 571.962, 688.059 577.770, 688.215 584.061 L 688.500 595.500 700.719 595.781 L 712.937 596.061 713.219 607.781 L 713.500 619.500 738.750 619.767 L 764 620.034 764 608.047 L 764 596.060 751.250 595.780 L 738.500 595.500 738.219 583.250 L 737.938 571 731.630 571 C 728.160 571, 717.161 570.704, 707.189 570.343 C 691.751 569.784, 688.974 569.905, 688.494 571.154 M 917 583 L 917 595 929.500 595 L 942 595 942 583 L 942 571 929.500 571 L 917 571 917 583 M 0 644.944 L 0 669.889 13.002 670.194 L 26.004 670.500 25.999 664 C 25.996 660.425, 25.699 649.063, 25.339 638.750 L 24.684 620 12.342 620 L 0 620 0 644.944 M 434 733.470 L 434 746 447.031 746 L 460.062 746 459.781 733.750 L 459.500 721.500 446.750 721.220 L 434 720.940 434 733.470 M 51 758.500 L 51 771 63.500 771 L 76 771 76 783.500 L 76 796 64 796 L 52 796 52 808.500 L 52 821 63.877 821 L 75.755 821 76.487 796.582 C 76.890 783.153, 76.919 771.678, 76.551 771.082 C 76.131 770.404, 71.429 770, 63.941 770 L 52 770 52 758.531 L 52 747.062 64.250 746.747 L 76.500 746.432 63.750 746.216 L 51 746 51 758.500 M 0 759 L 0 771 12.500 771 L 25 771 25 759 L 25 747 12.500 747 L 0 747 0 759 M 446.498 770.733 L 459 771.060 459 783.530 L 459 796 421.059 796 C 395.300 796, 382.907 796.342, 382.460 797.065 C 382.098 797.651, 382.130 809.126, 382.532 822.565 L 383.263 847 395.881 847.001 L 408.500 847.001 408.217 822.001 L 407.933 797 420.967 797 L 434 797 434 808.847 L 434 820.694 467.817 821.250 C 486.417 821.556, 509.142 821.558, 518.317 821.255 L 535 820.704 535 809.013 L 535 797.321 497.530 796.014 L 460.059 794.707 459.780 782.604 L 459.500 770.500 446.748 770.453 L 433.997 770.407 446.498 770.733 M 26 783 L 26 795 38 795 L 50 795 50 783 L 50 771 38 771 L 26 771 26 783 M 0 809 L 0 822.060 12.750 821.780 L 25.500 821.500 25.500 809 L 25.500 796.500 12.750 796.220 L 0 795.940 0 809 M 0 847.170 C 0 847.627, 5.850 848, 13 848 L 26 848 26 860 L 26 872 13 872 L 0 872 0 885 L 0 898 12.470 898 L 24.940 898 25.220 885.250 L 25.500 872.500 38.250 872.220 L 51 871.940 51 878.810 C 51 882.588, 50.704 893.852, 50.342 903.840 L 49.684 922 37.842 922 L 26 922 26 934.500 L 26 947 12.750 947.217 L -0.500 947.435 12.219 947.747 L 24.939 948.059 25.253 960.280 L 25.568 972.500 25.784 959.750 L 26 947 51.250 946.783 C 65.138 946.663, 70.763 946.425, 63.750 946.253 L 51 945.940 51 922.132 L 51 898.324 88.133 897.685 C 108.556 897.334, 125.656 897.288, 126.133 897.582 C 126.610 897.877, 127 903.491, 127 910.059 L 127 922 139.382 922 L 151.764 922 152.499 946.970 L 153.234 971.940 165.367 972.220 L 177.500 972.500 177.767 997.750 L 178.034 1023 190.405 1023 L 202.775 1023 203.509 1047.470 L 204.243 1071.940 216.372 1072.220 L 228.500 1072.500 228.810 1076.250 L 229.121 1080 242.200 1080 L 255.279 1080 254.648 1074.750 C 254.301 1071.862, 254.013 1064.676, 254.009 1058.781 L 254 1048.062 241.750 1047.781 L 229.500 1047.500 229.219 1035.780 L 228.937 1024.059 216.219 1023.780 L 203.500 1023.500 203.221 1010.250 L 202.942 997 191.078 997 L 179.215 997 178.480 972 L 177.746 947 165.403 947 L 153.060 947 152.780 934.250 L 152.500 921.500 140.356 921.220 L 128.211 920.940 127.478 896.970 L 126.746 873 114.373 873 L 102 873 102 885 L 102 897 89.658 897 L 77.316 897 76.658 878.840 C 76.296 868.852, 76 857.459, 76 853.524 L 76 846.368 38 846.354 C 17.100 846.347, 0 846.714, 0 847.170 M 459 885 L 459 897 471.500 897 L 484 897 484 885 L 484 873 471.500 873 L 459 873 459 885 M 306 909.500 L 306 921 318 921 L 330 921 330 909.500 L 330 898 318 898 L 306 898 306 909.500 M 77 972.500 L 77 997 89 997 L 101 997 101 972.500 L 101 948 89 948 L 77 948 77 972.500 M 1025.292 972.742 C 1029.027 972.935, 1034.877 972.934, 1038.292 972.739 C 1041.706 972.545, 1038.650 972.387, 1031.500 972.389 C 1024.350 972.390, 1021.556 972.550, 1025.292 972.742 M 917.458 998 L 917.500 1023.500 929.750 1023.781 L 942 1024.062 942 1011.031 L 942 998 930.030 998 L 918.060 998 917.738 985.250 C 917.562 978.237, 917.436 983.975, 917.458 998 M 51.667 998.667 C 51.300 999.033, 51 1017.483, 51 1039.667 L 51 1080 63.500 1080 L 76 1080 76 1076.500 L 76 1073 64 1073 L 52 1073 52 1048 L 52 1023 64 1023 L 76 1023 76 1010.500 L 76 998 64.167 998 C 57.658 998, 52.033 998.300, 51.667 998.667 M 1071.385 1011 C 1071.385 1017.875, 1071.545 1020.688, 1071.740 1017.250 C 1071.936 1013.813, 1071.936 1008.188, 1071.740 1004.750 C 1071.545 1001.313, 1071.385 1004.125, 1071.385 1011 M 663 1076.500 L 663 1080 675.500 1080 L 688 1080 688 1076.500 L 688 1073 675.500 1073 L 663 1073 663 1076.500" stroke="none" fill="#af532b" fill-rule="evenodd"/><path d="M 1045 15.340 C 1045 23.777, 1044.704 38.852, 1044.342 48.840 L 1043.684 67 1031.342 67 L 1019 67 1019 92 L 1019 117 1045 117 L 1071 117 1071 154.500 L 1071 192 1075.500 192 L 1080 192 1080 96 L 1080 0 1062.500 0 L 1045 0 1045 15.340 M 434 180 L 434 191 446.500 191 L 459 191 459 180 L 459 169 446.500 169 L 434 169 434 180 M 383 204.500 L 383 217 395.500 217 L 408 217 408 204.500 L 408 192 395.500 192 L 383 192 383 204.500 M 917.455 420.073 C 917.090 420.664, 917.121 431.914, 917.523 445.073 L 918.254 469 930 469 L 941.746 469 942.477 445.073 C 942.879 431.914, 942.910 420.664, 942.545 420.073 C 942.133 419.406, 937.383 419, 930 419 C 922.617 419, 917.867 419.406, 917.455 420.073 M 254.491 494.470 L 253.757 518.940 241.628 519.220 L 229.500 519.500 229.219 531.750 L 228.938 544 254.469 544 L 280 544 280 532.158 L 280 520.316 298.750 519.661 C 309.063 519.301, 320.538 519.004, 324.250 519.003 L 331 519 331 531.500 L 331 544 344 544 L 357 544 357 531.500 L 357 519 370 519 L 383 519 383 507.158 L 383 495.317 363.339 494.658 C 352.526 494.296, 334.976 494, 324.339 494 L 305 494 305 482.658 L 305 471.316 286.250 470.661 C 275.938 470.301, 264.738 470.004, 261.362 470.003 L 255.225 470 254.491 494.470 M 178 506.500 L 178 519 190.500 519 L 203 519 203 506.500 L 203 494 190.500 494 L 178 494 178 506.500 M 510.667 494.667 C 510.300 495.033, 510 500.658, 510 507.167 L 510 519 497.500 519 L 485 519 485 532 L 485 545 472.500 545 L 460 545 460 557.469 L 460 569.938 472.250 570.219 L 484.500 570.500 484.781 582.750 L 485.062 595 509.873 595 L 534.684 595 535.342 576.840 C 535.704 566.852, 536 555.377, 536 551.340 L 536 544 548 544 L 560 544 560 519 L 560 494 535.667 494 C 522.283 494, 511.033 494.300, 510.667 494.667 M 942.658 538.160 C 942.296 548.148, 942 559.398, 942 563.160 L 942 570 967.500 570 L 993 570 993 557.531 L 993 545.062 980.750 544.781 L 968.500 544.500 968.219 532.250 L 967.938 520 955.627 520 L 943.316 520 942.658 538.160 M 26 632 L 26 645.062 38.250 644.781 L 50.500 644.500 50.500 632 L 50.500 619.500 38.250 619.219 L 26 618.938 26 632 M 25.667 696.667 C 25.300 697.033, 25 702.658, 25 709.167 L 25 721 12.500 721 L 0 721 0 733.377 L 0 745.755 24.418 746.487 C 37.847 746.890, 49.322 746.919, 49.918 746.551 C 50.647 746.100, 51 737.756, 51 720.941 L 51 696 38.667 696 C 31.883 696, 26.033 696.300, 25.667 696.667 M 0 934.500 L 0 947 12.500 947 L 25 947 25 934.500 L 25 922 12.500 922 L 0 922 0 934.500 M 77 934.500 L 77 947 89.500 947 L 102 947 102 934.500 L 102 922 89.500 922 L 77 922 77 934.500 M 51 959.470 L 51 971.940 38.250 972.220 L 25.500 972.500 25.220 985.250 L 24.940 998 12.470 998 L 0 998 0 1039 L 0 1080 13 1080 L 26 1080 26 1076.500 L 26 1073 37.842 1073 L 49.684 1073 50.339 1054.250 C 50.699 1043.938, 50.996 1026.838, 50.997 1016.250 L 51 997 63.500 997 L 76 997 76 972 L 76 947 63.500 947 L 51 947 51 959.470 M 943 998.500 L 943 1024 955 1024 L 967 1024 967 998.500 L 967 973 955 973 L 943 973 943 998.500 M 1019 986 L 1019 999 1031 999 L 1043 999 1043 1010.800 C 1043 1018.032, 1043.425 1023.025, 1044.097 1023.697 C 1044.875 1024.475, 1044.981 1031.832, 1044.462 1048.897 L 1043.729 1073 1031.364 1073 L 1019 1073 1019 1076.500 L 1019 1080 1049.500 1080 L 1080 1080 1080 1076.500 C 1080 1073.037, 1079.954 1073, 1075.658 1073 L 1071.316 1073 1070.690 1054.250 C 1070.346 1043.938, 1070.346 1027.063, 1070.689 1016.750 L 1071.314 998 1057.657 998 L 1044 998 1044 985.500 L 1044 973 1031.500 973 L 1019 973 1019 986" stroke="none" fill="#f2bf9d" fill-rule="evenodd"/><path d="M 51 21 L 51 42 63.500 42 L 76 42 76 54 L 76 66 88.383 66 L 100.765 66 101.497 42.090 C 101.900 28.940, 101.926 17.690, 101.556 17.090 C 101.130 16.402, 96.481 16, 88.941 16 L 77 16 77 8 L 77 0 64 0 L 51 0 51 21 M 967.210 8.250 L 967.500 16.500 980.250 16.780 L 993 17.060 993 8.530 L 993 0 979.960 -0 L 966.919 -0 967.210 8.250 M 1018.763 33.250 L 1018.500 66.500 1006.362 66.780 L 994.223 67.060 993.539 91.280 C 993.162 104.601, 993 121.575, 993.177 129 L 993.500 142.500 1018.627 142.147 C 1034.293 141.927, 1043.982 142.162, 1044.358 142.771 C 1044.690 143.308, 1044.673 160.229, 1044.319 180.374 L 1043.676 217 1031.338 217 L 1019 217 1019 229.500 L 1019 242 1045 242 L 1071 242 1071 229.500 L 1071 217 1075.500 217 L 1080 217 1080.216 242.250 C 1080.341 256.810, 1080.584 262.208, 1080.790 255 C 1080.987 248.125, 1080.839 231.137, 1080.461 217.250 L 1079.774 192 1075.387 192 L 1071 192 1071 154.500 L 1071 117 1045 117 L 1019 117 1019 92 L 1019 67 1031.342 67 L 1043.684 67 1044.342 48.840 C 1044.704 38.852, 1045 23.777, 1045 15.340 L 1045 0 1032.013 0 L 1019.027 0 1018.763 33.250 M 0 67 L 0 92 12.500 92 L 25 92 25 67 L 25 42 12.500 42 L 0 42 0 67 M 460 79 L 460 91 472.500 91 L 485 91 485 103.983 L 485 116.966 459.250 117.233 L 433.500 117.500 433.220 129.593 L 432.941 141.686 414.220 142.340 C 403.924 142.700, 387.063 142.996, 376.750 142.997 L 358 143 358 117.500 L 358 92 344.500 92 L 331 92 331 104.500 L 331 117 318 117 L 305 117 305 129.470 L 305 141.940 292.250 142.220 L 279.500 142.500 279.220 154.644 L 278.940 166.787 253.970 167.521 L 229 168.254 228.997 186.377 C 228.996 196.345, 228.701 212.891, 228.343 223.147 L 227.691 241.795 202.845 242.524 L 178 243.254 178 268.127 L 178 293 165.500 293 L 153 293 153 306 L 153 319 140 319 L 127 319 127 331 L 127 343 165.530 343 L 204.060 343 203.780 355.750 L 203.500 368.500 178.375 368.157 L 153.251 367.814 152.512 393.407 L 151.774 419 139.387 419 L 127 419 127 444.500 L 127 470 114.500 470 L 102 470 102 481.970 L 102 493.940 89.250 494.220 L 76.500 494.500 76.233 519.767 L 75.966 545.034 50.733 544.767 L 25.500 544.500 25.177 531.500 C 24.999 524.350, 25.162 507.588, 25.539 494.250 L 26.225 470 51.112 470 L 76 470 76 457.658 L 76 445.316 57 444.655 C 46.550 444.292, 29.450 444.292, 19 444.655 L 0 445.316 0 532.658 L 0 620 12.387 620 L 24.774 620 25.514 645.653 L 26.254 671.306 44.287 670.653 C 54.206 670.294, 65.398 670, 69.160 670 L 76 670 76 650.660 C 76 640.023, 76.296 623.148, 76.658 613.160 L 77.316 595 89 595 L 100.684 595 101.342 613.160 C 101.704 623.148, 102 651.723, 102 676.660 L 102 722 114.500 722 L 127 722 127 734 L 127 746 152.655 746 L 178.309 746 177.596 704.070 C 177.203 681.008, 177.200 652.709, 177.588 641.183 L 178.293 620.227 203.116 619.497 L 227.939 618.766 228.219 607.133 L 228.500 595.500 241.219 595.220 L 253.939 594.941 254.219 582.720 L 254.500 570.500 279.750 570.233 L 305 569.966 305 557.483 L 305 545 318 545 L 331 545 331 557.500 L 331 570 344.500 570 L 358 570 358 557.500 L 358 545 383 545 L 408 545 408 557.500 L 408 570 395.517 570 L 383.035 570 382.767 594.750 L 382.500 619.500 369.750 619.780 L 357 620.060 357 632.530 L 357 645 344 645 L 331 645 331 657.341 L 331 669.683 351.250 670.339 C 362.387 670.700, 379.699 670.996, 389.719 670.997 L 407.938 671 408.219 683.250 L 408.500 695.500 420.750 695.781 L 433 696.062 433 683.531 L 433 671 421.158 671 L 409.316 671 408.661 652.250 C 408.301 641.938, 408.004 630.237, 408.003 626.250 L 408 619 421 619 L 434 619 434 607.500 L 434 596 446.500 596 L 459 596 459 607.377 L 459 618.755 484.500 619.490 C 498.525 619.895, 521.475 619.895, 535.500 619.490 L 561 618.755 561 607.377 L 561 596 573.441 596 C 580.363 596, 586.147 595.572, 586.479 595.034 C 586.807 594.503, 586.761 549.053, 586.376 494.034 L 585.675 394 573.338 394 L 561 394 561 380.970 L 561 367.940 548.250 368.220 L 535.500 368.500 535.238 406.750 L 534.976 445 522.488 445 L 510 445 510 432.500 L 510 420 497.500 420 L 485 420 485 431.887 L 485 443.774 459.530 444.509 L 434.060 445.244 433.780 457.372 L 433.500 469.500 369.250 469.757 L 305 470.015 305 457.507 L 305 445 292.530 445 L 280.060 445 279.780 432.250 L 279.500 419.500 266.720 419.220 L 253.941 418.940 254.220 406.220 L 254.500 393.500 267.250 393.220 L 280 392.940 280 380.979 L 280 369.018 331.250 368.759 L 382.500 368.500 382.500 356 L 382.500 343.500 356.750 343.233 L 331 342.966 331 331.542 C 331 324.425, 330.592 319.866, 329.918 319.449 C 329.322 319.081, 317.847 319.110, 304.418 319.513 L 280 320.245 280 331.623 L 280 343 267 343 L 254 343 254 355.500 L 254 368 241.500 368 L 229 368 229 343.530 L 229 319.060 216.250 318.780 L 203.500 318.500 203.219 306.280 L 202.939 294.060 215.719 293.780 L 228.500 293.500 228.781 281.250 L 229.062 269 241.531 269 L 254 269 254 256.030 L 254 243.060 266.750 242.780 L 279.500 242.500 279.780 230.407 L 280.059 218.314 298.780 217.663 C 309.076 217.304, 326.613 217.305, 337.750 217.664 L 358 218.317 358 230.159 L 358 242 396.500 242 L 435 242 435 230 L 435 218 446.500 218 L 458 218 458 229.971 L 458 241.942 471.250 242.221 L 484.500 242.500 484.780 254.638 L 485.060 266.776 510.530 267.511 L 536 268.245 536 280.623 L 536 293 548.500 293 L 561 293 561 281.131 L 561 269.263 585.435 268.532 C 598.874 268.130, 610.349 268.098, 610.935 268.460 C 611.592 268.866, 612 273.691, 612 281.059 L 612 293 650 293 L 688 293 688 280.500 L 688 268 700.369 268 L 712.737 268 713.473 243.404 C 713.959 227.137, 713.865 218.465, 713.194 217.794 C 712.523 217.123, 703.693 217.029, 687.090 217.517 L 662 218.254 662 230.127 L 662 242 650.031 242 L 638.062 242 637.781 229.750 L 637.500 217.500 624.750 217.220 L 612 216.940 612 204.487 L 612 192.034 586.750 191.767 L 561.500 191.500 561 179.500 L 560.500 167.500 548.250 167.219 L 536 166.938 535.997 148.219 C 535.996 137.924, 535.700 121.075, 535.340 110.779 L 534.686 92.057 522.093 91.779 L 509.500 91.500 509.219 79.250 L 508.938 67 484.469 67 L 460 67 460 79 M 434 180 L 434 191 446.500 191 L 459 191 459 180 L 459 169 446.500 169 L 434 169 434 180 M 383 204.500 L 383 217 395.500 217 L 408 217 408 204.500 L 408 192 395.500 192 L 383 192 383 204.500 M 1 243 L 1 268 12.970 268 L 24.940 268 25.220 255.250 L 25.500 242.500 38.250 242.220 L 51 241.940 51 229.970 L 51 218 26 218 L 1 218 1 243 M 26 281 L 26 294.062 38.250 293.781 L 50.500 293.500 50.500 281 L 50.500 268.500 38.250 268.219 L 26 267.938 26 281 M 12.750 319.747 L 0 320.060 0 330.872 L 0 341.684 18.750 342.339 C 29.063 342.699, 40.538 342.996, 44.250 342.997 L 51 343 51 331 L 51 319 38.250 319.217 C 31.238 319.337, 19.762 319.575, 12.750 319.747 M 26 381 L 26 394 51 394 L 76 394 76 406.500 L 76 419 88.500 419 L 101 419 101 406.500 L 101 394 88.500 394 L 76 394 76 381 L 76 368 51 368 L 26 368 26 381 M 942.667 368.667 C 942.300 369.033, 942 374.883, 942 381.667 L 942 394 929.500 394 L 917 394 916.998 406.750 L 916.996 419.500 929.137 419.189 C 936.100 419.011, 941.692 419.292, 942.248 419.848 C 942.863 420.463, 942.949 429.652, 942.482 444.909 L 941.746 469 929.903 469 L 918.060 469 917.747 456.250 L 917.435 443.500 917.217 456.750 L 917 470 904.500 470 L 892 470 892 495 L 892 520 904 520 L 916 520 916 531.888 L 916 543.775 891.500 544.510 L 867 545.245 867 557.592 L 867 569.938 879.250 570.219 L 891.500 570.500 891.158 594.634 C 890.908 612.266, 891.130 618.962, 891.982 619.489 C 892.624 619.886, 904.366 619.881, 918.075 619.478 L 943 618.746 943 607.535 L 943 596.324 980.158 595.671 C 1000.594 595.312, 1017.428 594.902, 1017.565 594.759 C 1017.702 594.617, 1017.969 583.250, 1018.157 569.500 L 1018.500 544.500 1006.281 544.219 L 994.061 543.939 993.781 531.719 L 993.500 519.500 980.250 519.221 L 967 518.942 967 506.971 L 967 495 955.059 495 C 947.634 495, 942.867 494.594, 942.455 493.927 C 942.090 493.336, 942.121 482.086, 942.523 468.927 L 943.254 445 968.127 445 L 993 445 993 407.158 L 993 369.316 974.840 368.658 C 951.829 367.824, 943.507 367.827, 942.667 368.667 M 254.491 494.470 L 253.757 518.940 241.628 519.220 L 229.500 519.500 229.219 531.750 L 228.938 544 254.469 544 L 280 544 280 532.158 L 280 520.316 298.750 519.661 C 309.063 519.301, 320.538 519.004, 324.250 519.003 L 331 519 331 531.500 L 331 544 344 544 L 357 544 357 531.500 L 357 519 370 519 L 383 519 383 507.158 L 383 495.317 363.339 494.658 C 352.526 494.296, 334.976 494, 324.339 494 L 305 494 305 482.658 L 305 471.316 286.250 470.661 C 275.938 470.301, 264.738 470.004, 261.362 470.003 L 255.225 470 254.491 494.470 M 485 482 L 485 493 497.500 493 L 510 493 510 482 L 510 471 497.500 471 L 485 471 485 482 M 102 519.531 L 102 545.062 114.250 544.781 L 126.500 544.500 126.767 519.250 L 127.034 494 114.517 494 L 102 494 102 519.531 M 178 506.500 L 178 519 190.500 519 L 203 519 203 506.500 L 203 494 190.500 494 L 178 494 178 506.500 M 510.667 494.667 C 510.300 495.033, 510 500.658, 510 507.167 L 510 519 497.500 519 L 485 519 485 532 L 485 545 472.500 545 L 460 545 460 557.469 L 460 569.938 472.250 570.219 L 484.500 570.500 484.781 582.750 L 485.062 595 509.873 595 L 534.684 595 535.342 576.840 C 535.704 566.852, 536 555.377, 536 551.340 L 536 544 548 544 L 560 544 560 519 L 560 494 535.667 494 C 522.283 494, 511.033 494.300, 510.667 494.667 M 942.658 538.160 C 942.296 548.148, 942 559.398, 942 563.160 L 942 570 967.500 570 L 993 570 993 557.531 L 993 545.062 980.750 544.781 L 968.500 544.500 968.219 532.250 L 967.938 520 955.627 520 L 943.316 520 942.658 538.160 M 688.494 571.154 C 688.184 571.962, 688.059 577.770, 688.215 584.061 L 688.500 595.500 700.719 595.781 L 712.937 596.061 713.219 607.781 L 713.500 619.500 738.750 619.767 L 764 620.034 764 608.047 L 764 596.060 751.250 595.780 L 738.500 595.500 738.219 583.250 L 737.938 571 731.630 571 C 728.160 571, 717.161 570.704, 707.189 570.343 C 691.751 569.784, 688.974 569.905, 688.494 571.154 M 917 583 L 917 595 929.500 595 L 942 595 942 583 L 942 571 929.500 571 L 917 571 917 583 M 26 632 L 26 645.062 38.250 644.781 L 50.500 644.500 50.500 632 L 50.500 619.500 38.250 619.219 L 26 618.938 26 632 M 0 695.470 L 0 721 12.469 721 L 24.938 721 25.219 708.750 L 25.500 696.500 38.267 696.220 L 51.034 695.940 50.767 721.220 L 50.500 746.500 25.500 746.424 C 11.750 746.383, 6.012 746.509, 12.750 746.704 L 25 747.060 25 759.030 L 25 771 12.500 771 L 0 771 0 783.470 L 0 795.940 12.750 796.220 L 25.500 796.500 25.500 809 L 25.500 821.500 12.750 821.780 L 0 822.060 0 833.873 L 0 845.686 19.399 846.358 C 30.068 846.727, 47.168 846.727, 57.399 846.358 L 76 845.686 76 833.343 L 76 821 64 821 L 52 821 52 808.500 L 52 796 64 796 L 76 796 76 783.500 L 76 771 63.500 771 L 51 771 51 758.500 L 51 746 63.377 746 L 75.755 746 76.487 721.582 C 76.890 708.153, 76.919 696.678, 76.551 696.082 C 76.100 695.353, 67.764 695, 50.972 695 L 26.062 695 25.781 682.750 L 25.500 670.500 12.750 670.220 L 0 669.940 0 695.470 M 434 733.470 L 434 746 447.031 746 L 460.062 746 459.781 733.750 L 459.500 721.500 446.750 721.220 L 434 720.940 434 733.470 M 26 783 L 26 795 38 795 L 50 795 50 783 L 50 771 38 771 L 26 771 26 783 M 280 809 L 280 847 267.500 847 L 255 847 255 859.469 L 255 871.938 267.250 872.219 L 279.500 872.500 279.781 884.750 L 280.062 897 292.531 897 L 305 897 305 885 L 305 873 317.500 873 L 330 873 330 885.500 L 330 898 318 898 L 306 898 306 909.500 L 306 921 318 921 L 330 921 330 909.500 L 330 898 344 898 L 358 898 358 909.500 L 358 921 396 921 L 434 921 433.997 902.750 C 433.996 892.712, 433.699 876.063, 433.339 865.750 L 432.684 847 407.973 847 L 383.263 847 382.532 822.565 C 382.130 809.126, 382.098 797.651, 382.460 797.065 C 382.907 796.342, 395.300 796, 421.059 796 L 459 796 459 783.500 L 459 771 369.500 771 L 280 771 280 809 M 25.667 872.667 C 25.300 873.033, 25 878.883, 25 885.667 L 25 898 12.500 898 L 0 898 0 910 L 0 922 12.377 922 L 24.755 922 25.487 946.418 C 25.890 959.847, 25.919 971.322, 25.551 971.918 C 25.129 972.600, 20.288 973, 12.441 973 L 0 973 0 985.500 L 0 998 12.470 998 L 24.940 998 25.220 985.250 L 25.500 972.500 38.250 972.220 L 51 971.940 51 959.470 L 51 947 38.500 947 L 26 947 26 934.500 L 26 922 37.842 922 L 49.684 922 50.342 903.840 C 50.704 893.852, 51 882.602, 51 878.840 L 51 872 38.667 872 C 31.883 872, 26.033 872.300, 25.667 872.667 M 459 885 L 459 897 471.500 897 L 484 897 484 885 L 484 873 471.500 873 L 459 873 459 885 M 89.250 897.733 L 76 898.058 76 947.529 L 76 997 63.500 997 C 56.625 997, 50.999 997.337, 50.998 997.750 C 50.997 998.163, 56.622 998.362, 63.498 998.193 L 76 997.886 76 1038.943 L 76 1080 152.560 1080 L 229.121 1080 228.810 1076.250 L 228.500 1072.500 216.372 1072.220 L 204.243 1071.940 203.509 1047.470 L 202.775 1023 190.405 1023 L 178.034 1023 177.767 997.750 L 177.500 972.500 165.367 972.220 L 153.234 971.940 152.499 946.970 L 151.764 922 139.413 922 L 127.062 922 126.781 909.750 L 126.500 897.500 114.500 897.454 C 107.900 897.429, 96.537 897.554, 89.250 897.733 M 77 934.500 L 77 947 89.500 947 L 102 947 102 934.500 L 102 922 89.500 922 L 77 922 77 934.500 M 77 972.500 L 77 997 89 997 L 101 997 101 972.500 L 101 948 89 948 L 77 948 77 972.500 M 930.750 972.733 L 918 973.060 918 985.530 L 918 998 930 998 L 942 998 942.002 1014.250 C 942.003 1023.188, 942.300 1041.638, 942.662 1055.250 L 943.320 1080 968.160 1080 L 993 1080 993 1064 L 993 1048 980.512 1048 L 968.024 1048 967.762 1010.250 L 967.500 972.500 955.500 972.453 C 948.900 972.427, 937.763 972.553, 930.750 972.733 M 943 998.500 L 943 1024 955 1024 L 967 1024 967 998.500 L 967 973 955 973 L 943 973 943 998.500 M 1018.641 1010.914 C 1018.839 1031.491, 1019 1053.879, 1019 1060.664 L 1019 1073 1031.364 1073 L 1043.729 1073 1044.462 1048.897 C 1044.981 1031.832, 1044.875 1024.475, 1044.097 1023.697 C 1043.425 1023.025, 1043 1018.032, 1043 1010.800 L 1043 999 1031.029 999 L 1019.058 999 1018.670 986.250 C 1018.457 979.237, 1018.444 990.336, 1018.641 1010.914 M 1044 985.500 L 1044 998 1057.500 998 L 1071 998 1071 985.500 L 1071 973 1057.500 973 L 1044 973 1044 985.500 M 1070.657 1023.805 C 1070.194 1024.522, 1070.142 1035.884, 1070.543 1049.055 L 1071.271 1073 1075.636 1073 L 1080 1073 1080 1060 L 1080 1047 1076.031 1047 L 1072.062 1047 1071.781 1034.750 C 1071.618 1027.637, 1071.147 1023.047, 1070.657 1023.805 M 50 1060.500 L 50 1073 38 1073 L 26 1073 26 1076.500 L 26 1080 38.500 1080 L 51 1080 51 1064 C 51 1055.200, 50.775 1048, 50.500 1048 C 50.225 1048, 50 1053.625, 50 1060.500" stroke="none" fill="#c88964" fill-rule="evenodd"/><path d="M 0 21 L 0 42 12.500 42 L 25 42 25 67 L 25 92 12.500 92 L 0 92 0 154.483 L 0 216.966 25.250 217.233 L 50.500 217.500 50.781 229.720 L 51.061 241.940 38.281 242.220 L 25.500 242.500 25.220 255.250 L 24.940 268 12.470 268 L 0 268 0 293.500 L 0 319 25.531 319 L 51.062 319 50.781 331.250 L 50.500 343.500 25.250 343.144 L 0 342.788 0 356.002 L 0 369.216 25.923 368.483 C 40.180 368.080, 62.858 368.081, 76.319 368.484 L 100.792 369.219 101.523 394.109 L 102.254 419 114.509 419 L 126.764 419 127.500 393.009 C 127.904 378.715, 127.905 356.215, 127.500 343.009 L 126.765 319 139.260 319 L 151.755 319 152.489 293.530 L 153.224 268.060 165.362 267.780 L 177.500 267.500 177.780 254.750 L 178.060 242 190.372 242 L 202.684 242 203.339 223.250 C 203.699 212.938, 203.996 196.287, 203.997 186.250 L 204 168 216.500 168 L 229 168 229 155.618 L 229 143.236 254 142.500 L 279 141.764 279 129.412 L 279 117.060 291.750 116.780 L 304.500 116.500 304.781 104.280 L 305.061 92.059 317.781 91.780 L 330.500 91.500 330.780 78.750 L 331.060 66 356.498 66 L 381.937 66 382.218 54.250 L 382.500 42.500 395.750 42.221 L 409 41.942 409 29.971 L 409 18 420.883 18 L 432.765 18 433.500 42 L 434.235 66 446.617 66 L 459 66 459 54 L 459 42 484.500 42 L 510 42 510 54 L 510 66 523 66 L 536 66 536 54 L 536 42 549 42 L 562 42 562 30 L 562 18 573.982 18 L 585.964 18 586.232 42.250 L 586.500 66.500 611.750 66.767 L 637 67.034 637 79.517 L 637 92 662.500 92 L 688 92 688 104.500 L 688 117 700.470 117 L 712.940 117 713.220 129.750 L 713.500 142.500 725.750 142.781 L 738 143.062 738 160.370 C 738 169.890, 738.296 186.526, 738.658 197.339 L 739.317 217 751.658 217 L 764 217 764 254.842 L 764 292.684 745.250 293.339 C 734.938 293.699, 712.212 293.996, 694.750 293.997 L 663 294 663 306.500 L 663 319 599.530 319 L 536.060 319 535.780 306.250 L 535.500 293.500 523.281 293.219 L 511.061 292.939 510.781 280.719 L 510.500 268.500 497.750 268.220 L 485 267.940 485 255.470 L 485 243 427.750 242.997 C 396.262 242.996, 361.387 242.700, 350.250 242.339 L 330 241.683 330 229.841 L 330 218 318.031 218 L 306.062 218 305.781 230.250 L 305.500 242.500 280.362 242.767 L 255.225 243.034 254.490 268.517 L 253.755 294 241.377 294 L 229 294 229 306.500 L 229 319 248.250 318.997 C 258.837 318.996, 275.938 318.699, 286.250 318.339 L 305 317.684 305 305.842 L 305 294 331 294 L 357 294 357 318.631 L 357 343.262 382.500 342.529 L 408 341.796 408 355.398 L 408 369 396 369 L 384 369 384 380.893 C 384 390.815, 383.738 392.887, 382.418 393.393 C 381.548 393.727, 358.148 394, 330.418 394 L 280 394 280 406.500 L 280 419 292.500 419 L 305 419 305 431.342 L 305 443.684 323.750 444.339 C 334.063 444.699, 345.988 444.996, 350.250 444.997 L 358 445 358 457 L 358 469 383 469 L 408 469 408 457.123 L 408 445.245 433.470 444.511 L 458.940 443.776 459.220 431.638 L 459.500 419.500 472.250 419.220 L 485 418.940 485 394.088 L 485 369.236 510 368.500 L 535 367.764 535 355.382 L 535 343 542.340 343 C 546.377 343, 557.799 343.294, 567.723 343.654 L 585.767 344.307 586.507 394.654 L 587.248 445 599.124 445 L 611 445 611 462.339 C 611 471.876, 611.296 488.526, 611.658 499.339 L 612.317 519 630.908 519.003 C 641.134 519.004, 657.924 519.300, 668.220 519.660 L 686.941 520.314 687.220 532.407 L 687.500 544.500 700.750 544.779 L 714 545.058 714 557.512 L 714 569.966 739.250 570.233 L 764.500 570.500 764.781 582.719 L 765.061 594.939 777.281 595.219 L 789.500 595.500 789.823 608.500 C 790.001 615.650, 789.838 632.413, 789.461 645.750 L 788.775 670 751.418 670 L 714.062 670 713.781 657.750 L 713.500 645.500 701.372 645.220 L 689.243 644.940 688.509 620.470 L 687.775 596 674.888 596 L 662 596 662 583.531 L 662 571.062 649.750 570.781 L 637.500 570.500 637.220 557.750 L 636.940 545 624.470 545 L 612 545 612 569.970 L 612 594.940 624.750 595.220 L 637.500 595.500 637.500 607.500 L 637.500 619.500 599.250 619.762 L 561 620.024 561 632.524 L 561 645.024 522.750 644.762 L 484.500 644.500 484.219 632.250 L 483.938 620 446.469 620 L 409 620 409 632.500 L 409 645 420.887 645 L 432.774 645 433.510 670.500 L 434.245 696 446.623 696 L 459 696 459 708.470 L 459 720.940 471.750 721.220 L 484.500 721.500 484.783 733.417 C 484.940 740.034, 484.644 745.756, 484.116 746.284 C 483.520 746.880, 464.450 746.957, 433.083 746.491 L 383 745.748 383 733.904 L 383 722.060 370.250 721.780 L 357.500 721.500 357.846 696.279 L 358.191 671.058 344.346 670.779 L 330.500 670.500 330.221 657.907 L 329.943 645.314 310.971 644.654 C 300.537 644.291, 283.450 644.292, 273 644.655 L 254 645.316 254 658.158 L 254 671 241.342 671 L 228.684 671 229.339 689.750 C 229.699 700.063, 229.996 711.299, 229.997 714.719 L 230 720.938 242.250 721.219 L 254.500 721.500 254.780 733.593 L 255.059 745.687 273.190 746.343 C 283.162 746.704, 306.323 747, 324.660 747 L 358 747 358 758.500 L 358 770 383.250 770.250 C 397.137 770.388, 419.975 770.500, 434 770.500 L 459.500 770.500 459.780 782.604 L 460.059 794.707 497.530 796.014 L 535 797.321 535 809.013 L 535 820.704 518.317 821.255 C 509.142 821.558, 486.417 821.556, 467.817 821.250 L 434 820.694 434 808.847 L 434 797 420.983 797 L 407.965 797 408.233 821.750 L 408.500 846.500 421.250 846.780 L 434 847.060 434 859.513 L 434 871.966 459.250 872.233 L 484.500 872.500 484.780 885.250 L 485.060 898 472.562 898 L 460.063 898 459.782 909.750 L 459.500 921.500 394.500 921.644 C 358.750 921.723, 318.363 921.558, 304.750 921.276 L 280 920.764 280 909.509 L 280 898.254 255 897.520 L 230 896.785 230 885 C 230 875.175, 229.737 873.113, 228.418 872.607 C 227.548 872.273, 221.698 872, 215.418 872 L 204 872 204 859.530 L 204 847.060 191.250 846.780 L 178.500 846.500 178.219 834.250 L 177.938 822 165.499 822 L 153.060 822 152.780 809.250 L 152.500 796.500 127.414 796.233 L 102.327 795.966 101.664 740.319 C 101.299 709.712, 101 670.120, 101 652.335 L 101 620 89.017 620 L 77.034 620 76.767 645.250 L 76.500 670.500 51.250 670.767 L 26 671.034 26 683.017 L 26 695 51.500 695 L 77 695 76.997 702.250 C 76.996 706.237, 76.699 717.938, 76.339 728.250 L 75.684 747 63.842 747 L 52 747 52 758.469 L 52 769.938 64.250 770.219 L 76.500 770.500 76.114 809.500 C 75.901 830.950, 76.067 859.413, 76.481 872.750 L 77.235 897 89.617 897 L 102 897 102 885 L 102 873 114.373 873 L 126.746 873 127.478 896.970 L 128.211 920.940 140.356 921.220 L 152.500 921.500 152.780 934.250 L 153.060 947 165.403 947 L 177.746 947 178.480 972 L 179.215 997 191.078 997 L 202.942 997 203.221 1010.250 L 203.500 1023.500 216.219 1023.780 L 228.937 1024.059 229.219 1035.780 L 229.500 1047.500 241.750 1047.781 L 254 1048.062 254.009 1058.781 C 254.013 1064.676, 254.301 1071.862, 254.648 1074.750 L 255.279 1080 306.139 1080 L 357 1080 357 1076.627 L 357 1073.254 331 1072.519 L 305 1071.784 305 1059.392 L 305 1047 292.622 1047 L 280.245 1047 279.508 1023.415 C 279.080 1009.734, 279.147 999.453, 279.667 998.933 C 280.161 998.439, 291.800 997.915, 305.532 997.768 L 330.500 997.500 330.781 985.250 L 331.062 973 344 973 L 356.938 973 357.219 985.250 L 357.500 997.500 408.138 997.547 L 458.776 997.595 459.506 972.797 L 460.236 948 472 948 L 483.764 948 484.500 973 L 485.236 998 497.618 998 L 510 998 510 960 L 510 922 535 922 L 560 922 560 934.373 L 560 946.746 586 947.481 L 612 948.216 612 960.108 L 612 972 624.500 972 L 637 972 637 947.009 L 637 922.018 687.750 921.759 L 738.500 921.500 739 909.500 L 739.500 897.500 751.750 897.219 L 764 896.938 764 884.469 L 764 872 776.342 872 L 788.684 872 789.339 853.250 C 789.699 842.938, 789.996 825.837, 789.997 815.250 L 790 796 802.500 796 L 815 796 815.003 777.250 C 815.004 766.938, 815.301 750.063, 815.661 739.750 L 816.316 721 828.158 721 L 840 721 840 708.500 L 840 696 828 696 L 816 696 816 670.500 L 816 645 892 645 L 968 645 968 632.500 L 968 620 993.500 620 L 1019 620 1019 608 L 1019 596 1031.500 596 L 1044 596 1044 570 L 1044 544 1031.500 544 L 1019 544 1019 474.660 C 1019 436.523, 1018.704 397.162, 1018.343 387.190 L 1017.687 369.059 1005.593 368.780 L 993.500 368.500 993.220 355.750 L 992.940 343 1005.970 343 L 1019 343 1019 336.660 C 1019 333.173, 1018.704 322.148, 1018.342 312.160 L 1017.684 294 1005.842 294 L 994 294 994 281 L 994 268 981 268 L 968 268 968 255.500 L 968 243 955.500 243 L 943 243 943 280.500 L 943 318 955 318 L 967 318 967 330.500 L 967 343 954.500 343 L 942 343 942 355.500 L 942 368 929.623 368 L 917.245 368 916.511 393.470 L 915.776 418.940 903.638 419.220 L 891.500 419.500 891.233 444.750 L 890.966 470 879.124 470 L 867.281 470 866.391 444.750 L 865.500 419.500 853.280 419.219 L 841.060 418.939 840.780 431.719 L 840.500 444.500 828 444.500 L 815.500 444.500 815.220 431.750 L 814.940 419 790.001 419 L 765.062 419 764.781 406.750 L 764.500 394.500 739.250 394.233 L 714 393.966 714 406.483 L 714 419 676 419 L 638 419 638 406.500 L 638 394 650 394 L 662 394 662 368.655 L 662 343.310 680.250 342.707 C 690.288 342.376, 730.325 342.379, 769.221 342.714 L 839.943 343.323 840.221 355.911 L 840.500 368.500 853 368.500 L 865.500 368.500 865.500 305.500 L 865.500 242.500 853.367 242.220 L 841.234 241.940 840.499 216.970 L 839.764 192 827.382 192 L 815 192 815 179.500 L 815 167 802.623 167 L 790.245 167 789.513 142.604 L 788.781 118.208 763.891 117.477 L 739 116.746 739 104.403 L 739 92.060 726.250 91.780 L 713.500 91.500 713.220 78.750 L 712.940 66 687.970 66 L 663 66 663 33 L 663 0 599 0 L 535 0 535 8 L 535 16 523 16 L 511 16 511 8 L 511 0 447.540 0 L 384.081 0 383.790 8.250 L 383.500 16.500 357.372 16.766 L 331.244 17.033 330.510 41.516 L 329.775 66 304.388 66 L 279 66 279 78.342 L 279 90.684 260.250 91.339 C 249.938 91.699, 233.115 91.996, 222.868 91.997 L 204.236 92 203.500 117 L 202.764 142 177.882 142 L 153 142 153 92 L 153 42 165.500 42 L 178 42 178 29.658 L 178 17.317 197.661 16.658 C 208.474 16.296, 231.199 16, 248.161 16 L 279 16 279 8 L 279 0 190.085 0 L 101.170 0 101.739 33 L 102.309 66 89.154 66 L 76 66 76 54.500 L 76 43 63.500 43 L 51 43 51 21.500 L 51 0 25.500 0 L 0 0 0 21 M 306 8 L 306 16 318.500 16 L 331 16 331 8 L 331 0 318.500 0 L 306 0 306 8 M 866.210 8.250 L 866.500 16.500 892.250 16.767 L 918 17.034 918 29.517 L 918 42 930 42 L 942 42 942 54 L 942 66 954.500 66 L 967 66 967 97.339 C 967 114.576, 967.296 137.526, 967.658 148.339 L 968.317 168 993.158 168 L 1018 168 1018 179.500 L 1018 191 1006.059 191 C 998.467 191, 993.871 191.400, 993.439 192.098 C 993.066 192.702, 993.090 204.163, 993.492 217.568 L 994.223 241.940 1006.362 242.220 L 1018.500 242.500 1018.780 255.250 L 1019.060 268 1049.530 268 L 1080 268 1080 242.500 L 1080 217 1075.500 217 L 1071 217 1071 229.500 L 1071 242 1045 242 L 1019 242 1019 229.500 L 1019 217 1031.338 217 L 1043.676 217 1044.319 180.374 C 1044.673 160.229, 1044.690 143.308, 1044.358 142.771 C 1043.982 142.162, 1034.293 141.927, 1018.627 142.147 L 993.500 142.500 993.177 129 C 993 121.575, 993.162 104.601, 993.539 91.280 L 994.223 67.060 1006.362 66.780 L 1018.500 66.500 1018.763 33.250 L 1019.027 -0 1006.013 -0 L 993 0 993 8.530 L 993 17.060 980.250 16.780 L 967.500 16.500 967.210 8.250 L 966.919 -0 916.419 -0 L 865.919 -0 866.210 8.250 M 153 204.500 L 153 217 165 217 L 177 217 177 204.500 L 177 192 165 192 L 153 192 153 204.500 M 25.220 280.750 L 25.500 293.500 38.250 293.780 L 51 294.060 51 281.030 L 51 268 37.970 268 L 24.940 268 25.220 280.750 M 370.750 268.747 L 358 269.060 358 281.013 L 358 292.966 383.250 293.233 L 408.500 293.500 408.781 305.750 L 409.062 318 433.904 318 L 458.746 318 459.477 294.073 C 459.879 280.914, 459.910 269.664, 459.545 269.073 C 458.921 268.063, 406.522 267.870, 370.750 268.747 M 434 356.158 L 434 369.316 452.750 368.661 C 463.063 368.301, 474.538 368.004, 478.250 368.003 L 485 368 485 355.500 L 485 343 459.500 343 L 434 343 434 356.158 M 942.667 368.667 C 942.300 369.033, 942 374.883, 942 381.667 L 942 394 929.500 394 L 917 394 916.997 413.250 C 916.996 423.837, 916.700 440.924, 916.340 451.220 L 915.686 469.941 903.593 470.220 L 891.500 470.500 891.638 483 C 891.714 489.875, 891.551 506.413, 891.275 519.750 L 890.775 544 878.947 544 C 872.441 544, 866.863 544.412, 866.552 544.916 C 866.240 545.420, 866.286 562.282, 866.654 582.387 L 867.323 618.941 879.411 619.221 L 891.500 619.500 891.781 631.750 L 892.062 644 904.531 644 L 917 644 917 632 L 917 620 936.250 619.997 C 946.837 619.996, 963.938 619.699, 974.250 619.339 L 993 618.684 993 607.372 L 993 596.060 1005.750 595.780 L 1018.500 595.500 1018.824 583 C 1019.002 576.125, 1018.840 559.189, 1018.464 545.365 L 1017.781 520.229 992.890 519.497 L 968 518.764 968 506.382 L 968 494 980.364 494 L 992.728 494 993.207 479.086 C 993.470 470.883, 993.470 442.827, 993.206 416.739 L 992.726 369.306 974.702 368.653 C 951.827 367.824, 943.505 367.828, 942.667 368.667 M 587 381 L 587 393 599 393 L 611 393 611 381 L 611 369 599 369 L 587 369 587 381 M 0 406 L 0 419 25 419 L 50 419 50 406.658 L 50 394.316 31.250 393.661 C 20.938 393.301, 9.688 393.004, 6.250 393.003 L 0 393 0 406 M 612.667 419.667 C 612.300 420.033, 612 425.658, 612 432.167 L 612 444 624.500 444 L 637 444 637 431.500 L 637 419 625.167 419 C 618.658 419, 613.033 419.300, 612.667 419.667 M 841 457.531 L 841 470.062 853.250 469.781 L 865.500 469.500 865.781 457.250 L 866.062 445 853.531 445 L 841 445 841 457.531 M 688.696 470.637 C 688.313 471.020, 688 476.447, 688 482.697 L 688 494.060 700.750 493.780 L 713.500 493.500 713.500 482 L 713.500 470.500 701.446 470.221 C 694.816 470.067, 689.079 470.255, 688.696 470.637 M 51 482.500 L 51 494 63.500 494 L 76 494 76 482.500 L 76 471 63.500 471 L 51 471 51 482.500 M 1071.663 507.097 C 1071.300 526.951, 1071.253 543.601, 1071.560 544.097 C 1071.867 544.594, 1073.891 545, 1076.059 545 L 1080 545 1080 508 L 1080 471 1076.162 471 L 1072.324 471 1071.663 507.097 M 765 507 L 765 519 777 519 L 789 519 789 507 L 789 495 777 495 L 765 495 765 507 M 548.250 670.747 L 535 671.058 535 683.529 L 535 696 522.500 696 L 510 696 510 683.500 L 510 671 497.500 671 L 485 671 485 696 L 485 721 504.250 721.003 C 514.837 721.004, 531.938 721.301, 542.250 721.661 L 561 722.316 561 734.045 L 561 745.774 586.500 746.510 L 612 747.245 612 758.623 L 612 770 624.500 770 L 637 770 637 783 L 637 796 624.500 796 L 612 796 612 808.382 L 612 820.764 637.083 821.502 C 650.879 821.908, 673.535 821.913, 687.429 821.512 L 712.692 820.783 713.344 802.012 C 713.703 791.688, 713.704 775.156, 713.346 765.273 L 712.695 747.306 694.098 746.656 C 683.869 746.298, 661.212 746.004, 643.750 746.003 L 612 746 612 734 L 612 722 624.500 722 L 637 722 637 696.658 L 637 671.316 618.250 670.661 C 600.396 670.037, 577.336 670.065, 548.250 670.747 M 305 734 L 305 746 317.500 746 L 330 746 330 734 L 330 722 317.500 722 L 305 722 305 734 M 409 758.500 L 409 770 421 770 L 433 770 433 758.500 L 433 747 421 747 L 409 747 409 758.500 M 523.219 770.673 L 509.939 771.058 510.219 783.279 L 510.500 795.500 548.750 795.762 L 587 796.024 587 783.512 L 587 771 580.250 770.997 C 576.538 770.996, 565.175 770.835, 555 770.641 C 544.825 770.447, 530.524 770.461, 523.219 770.673 M 0 860 L 0 872 13 872 L 26 872 26 860 L 26 848 13 848 L 0 848 0 860 M 77 860 L 77 872 89 872 L 101 872 101 860 L 101 848 89 848 L 77 848 77 860 M 153 885 L 153 897 165 897 L 177 897 177 885 L 177 873 165 873 L 153 873 153 885 M 51 922 L 51 946 63.500 946 L 76 946 76 922 L 76 898 63.500 898 L 51 898 51 922 M 929.907 947.732 L 917.314 948.057 916.660 966.779 C 916.300 977.075, 916.004 993.938, 916.003 1004.250 L 916 1023 904 1023 L 892 1023 891.991 1046.250 C 891.987 1059.037, 891.699 1071.862, 891.352 1074.750 L 890.721 1080 916.244 1080 L 941.767 1080 942.466 1073.475 C 942.850 1069.887, 942.840 1057.300, 942.443 1045.505 L 941.721 1024.059 929.610 1023.780 L 917.500 1023.500 917.233 998.382 L 916.966 973.264 941.418 972.533 C 954.867 972.131, 966.363 972.106, 966.965 972.479 C 967.743 972.959, 967.980 969.433, 967.780 960.328 L 967.500 947.500 955 947.453 C 948.125 947.428, 936.833 947.553, 929.907 947.732 M 1018.750 947.539 C 1018.337 947.976, 1018 953.658, 1018 960.167 L 1018 972 1005.500 972 L 993 972 993 985.557 L 993 999.114 980.498 998.807 L 967.996 998.500 967.998 1023.250 L 968 1048 980.500 1048 L 993 1048 993 1064 L 993 1080 1005.415 1080 L 1017.829 1080 1018.505 1072.750 C 1018.877 1068.763, 1019.028 1044.575, 1018.841 1019 L 1018.500 972.500 1044.500 972.850 C 1058.800 973.042, 1070.608 973.301, 1070.741 973.424 C 1070.873 973.548, 1071.284 990.153, 1071.653 1010.324 L 1072.324 1047 1076.162 1047 L 1080 1047 1080.003 1015.750 C 1080.004 998.563, 1080.164 976.175, 1080.358 966 C 1080.552 955.825, 1080.537 953.013, 1080.325 959.750 L 1079.940 972 1074.970 972 L 1070 972 1070 960 L 1070 948 1063.250 947.997 C 1059.537 947.996, 1048.175 947.713, 1038 947.370 C 1027.825 947.026, 1019.163 947.103, 1018.750 947.539 M 1 960.500 L 1 973 13 973 L 25 973 25 960.500 L 25 948 13 948 L 1 948 1 960.500 M 229 985 L 229 998 241.500 998 L 254 998 254 985 L 254 972 241.500 972 L 229 972 229 985 M 52 1048 L 52 1073 64 1073 L 76 1073 76 1048 L 76 1023 64 1023 L 52 1023 52 1048 M 358 1035.500 L 358 1047 370.500 1047 L 383 1047 383 1035.500 L 383 1024 370.500 1024 L 358 1024 358 1035.500 M 662.667 1047.667 C 662.300 1048.033, 662 1053.658, 662 1060.167 L 662 1072 650 1072 L 638 1072 638 1076 L 638 1080 650.500 1080 L 663 1080 663 1076.500 L 663 1073 675.500 1073 L 688 1073 688 1076.500 L 688 1080 764.639 1080 L 841.279 1080 840.648 1074.750 C 840.301 1071.862, 840.013 1064.517, 840.009 1058.426 L 840 1047.352 802.250 1047.513 C 781.487 1047.602, 758.763 1047.748, 751.750 1047.837 L 739 1048 739 1060 L 739 1072 726 1072 L 713 1072 713 1060.158 L 713 1048.316 694.250 1047.661 C 670.490 1046.831, 663.502 1046.832, 662.667 1047.667 M 383.009 1058.750 C 383.013 1064.662, 383.301 1071.862, 383.648 1074.750 L 384.279 1080 396.139 1080 L 408 1080 408 1064 L 408 1048 395.500 1048 L 383 1048 383.009 1058.750 M 459.667 1072.667 C 459.300 1073.033, 459 1074.833, 459 1076.667 L 459 1080 471.500 1080 L 484 1080 484 1076 L 484 1072 472.167 1072 C 465.658 1072, 460.033 1072.300, 459.667 1072.667" stroke="none" fill="#563e34" fill-rule="evenodd"/></svg>